# xmcd
#
# Track frame offsets: 
#        150
#        17417
#        34498
#        50038
#        67484
#        82565
#        98682
#        116183
#        130868
#        147563
#        168527
#        185338
#        197108
#
# Disc length: 2799 seconds
#
# Revision: 0
# Processed by: cddbd v1.5.2PL0 Copyright (c) Steve Scherf et al.
# Submitted via: ExactAudioCopy v1.0b6
#
DISCID=bd0aed0d
DTITLE=Placido Domingo - My Christmas (2015)
DYEAR=2015
DGENRE=Christmas Classical
TTITLE0=Have Yourself a Merry Little Christmas [feat. Vincent Niclo]
TTITLE1=Guardian Angels [feat. Idina Menzel]
TTITLE2=Silent Night [feat. The Piano Guys]
TTITLE3=What Child is This [feat. Helene Fischer]
TTITLE4=God Rest Ye Merry, Gentlemen [feat. Voices of L.A. Opera's Dom
TTITLE4=ingo-Colburn-Stein Young Artist Program]
TTITLE5=Hark! The Herald Angels Sing
TTITLE6=Pie Jesu (from Requiem) [feat. Jackie Evancho]
TTITLE7=Astro del cielo
TTITLE8=Loving Christmas with You [feat. Hayley Westenra]
TTITLE9=It Came Upon the Midnight Clear
TTITLE10=White Christmas [feat. Placido Domingo Jr.]
TTITLE11=Ave verum corpus
TTITLE12=Feliz Navidad [feat. Banda El Recodo]
EXTD=
EXTT0=
EXTT1=
EXTT2=
EXTT3=
EXTT4=
EXTT5=
EXTT6=
EXTT7=
EXTT8=
EXTT9=
EXTT10=
EXTT11=
EXTT12=
PLAYORDER=
